<mxfile host="app.diagrams.net" modified="2022-11-14T16:55:24.301Z" agent="5.0 (Windows)" etag="RZQGjfVP85Ud1A0rucot" version="20.5.3" type="github">
  <diagram id="C5RBs43oDa-KdzZeNtuy" name="Page-1">
    <mxGraphModel dx="942" dy="572" grid="1" gridSize="10" guides="1" tooltips="1" connect="1" arrows="1" fold="1" page="1" pageScale="1" pageWidth="827" pageHeight="1169" math="0" shadow="0">
      <root>
        <mxCell id="WIyWlLk6GJQsqaUBKTNV-0" />
        <mxCell id="WIyWlLk6GJQsqaUBKTNV-1" parent="WIyWlLk6GJQsqaUBKTNV-0" />
        <mxCell id="WIyWlLk6GJQsqaUBKTNV-2" value="" style="rounded=0;html=1;jettySize=auto;orthogonalLoop=1;fontSize=11;endArrow=block;endFill=0;endSize=8;strokeWidth=1;shadow=0;labelBackgroundColor=none;edgeStyle=orthogonalEdgeStyle;" parent="WIyWlLk6GJQsqaUBKTNV-1" source="WIyWlLk6GJQsqaUBKTNV-3" target="WIyWlLk6GJQsqaUBKTNV-6" edge="1">
          <mxGeometry relative="1" as="geometry" />
        </mxCell>
        <mxCell id="WIyWlLk6GJQsqaUBKTNV-3" value="Host Management" style="rounded=1;whiteSpace=wrap;html=1;fontSize=12;glass=0;strokeWidth=1;shadow=0;" parent="WIyWlLk6GJQsqaUBKTNV-1" vertex="1">
          <mxGeometry x="320" y="50" width="170" height="40" as="geometry" />
        </mxCell>
        <mxCell id="s5PXaif0AqIX-a3yGmby-14" value="" style="edgeStyle=orthogonalEdgeStyle;rounded=0;orthogonalLoop=1;jettySize=auto;html=1;" edge="1" parent="WIyWlLk6GJQsqaUBKTNV-1" source="WIyWlLk6GJQsqaUBKTNV-6" target="s5PXaif0AqIX-a3yGmby-13">
          <mxGeometry relative="1" as="geometry" />
        </mxCell>
        <mxCell id="WIyWlLk6GJQsqaUBKTNV-6" value="&lt;div&gt;Host &lt;br&gt;&lt;/div&gt;&lt;div&gt;is &lt;br&gt;&lt;/div&gt;&lt;div&gt;Online?&lt;/div&gt;" style="rhombus;whiteSpace=wrap;html=1;shadow=0;fontFamily=Helvetica;fontSize=12;align=center;strokeWidth=1;spacing=6;spacingTop=-4;" parent="WIyWlLk6GJQsqaUBKTNV-1" vertex="1">
          <mxGeometry x="355" y="160" width="100" height="80" as="geometry" />
        </mxCell>
        <mxCell id="s5PXaif0AqIX-a3yGmby-10" value="" style="edgeStyle=orthogonalEdgeStyle;rounded=0;orthogonalLoop=1;jettySize=auto;html=1;" edge="1" parent="WIyWlLk6GJQsqaUBKTNV-1" source="WIyWlLk6GJQsqaUBKTNV-7">
          <mxGeometry relative="1" as="geometry">
            <mxPoint x="210" y="280" as="targetPoint" />
          </mxGeometry>
        </mxCell>
        <mxCell id="WIyWlLk6GJQsqaUBKTNV-7" value="&lt;div&gt;Check &lt;br&gt;&lt;/div&gt;&lt;div&gt;Sensor Version&lt;/div&gt;" style="rounded=1;whiteSpace=wrap;html=1;fontSize=12;glass=0;strokeWidth=1;shadow=0;" parent="WIyWlLk6GJQsqaUBKTNV-1" vertex="1">
          <mxGeometry x="150" y="180" width="120" height="40" as="geometry" />
        </mxCell>
        <mxCell id="s5PXaif0AqIX-a3yGmby-1" value="&lt;div&gt;Check &lt;br&gt;&lt;/div&gt;&lt;div&gt;Last Seen&lt;/div&gt;" style="rounded=1;whiteSpace=wrap;html=1;fontSize=12;glass=0;strokeWidth=1;shadow=0;" vertex="1" parent="WIyWlLk6GJQsqaUBKTNV-1">
          <mxGeometry x="510" y="180" width="90" height="40" as="geometry" />
        </mxCell>
        <mxCell id="s5PXaif0AqIX-a3yGmby-2" value="No" style="edgeStyle=orthogonalEdgeStyle;rounded=0;html=1;jettySize=auto;orthogonalLoop=1;fontSize=11;endArrow=block;endFill=0;endSize=8;strokeWidth=1;shadow=0;labelBackgroundColor=none;exitX=1;exitY=0.5;exitDx=0;exitDy=0;" edge="1" parent="WIyWlLk6GJQsqaUBKTNV-1" source="WIyWlLk6GJQsqaUBKTNV-6" target="s5PXaif0AqIX-a3yGmby-1">
          <mxGeometry y="10" relative="1" as="geometry">
            <mxPoint as="offset" />
            <mxPoint x="330" y="210" as="sourcePoint" />
            <mxPoint x="250" y="210" as="targetPoint" />
          </mxGeometry>
        </mxCell>
        <mxCell id="s5PXaif0AqIX-a3yGmby-18" value="" style="edgeStyle=orthogonalEdgeStyle;rounded=0;orthogonalLoop=1;jettySize=auto;html=1;" edge="1" parent="WIyWlLk6GJQsqaUBKTNV-1" source="s5PXaif0AqIX-a3yGmby-13" target="s5PXaif0AqIX-a3yGmby-17">
          <mxGeometry relative="1" as="geometry" />
        </mxCell>
        <mxCell id="s5PXaif0AqIX-a3yGmby-20" value="" style="edgeStyle=orthogonalEdgeStyle;rounded=0;orthogonalLoop=1;jettySize=auto;html=1;" edge="1" parent="WIyWlLk6GJQsqaUBKTNV-1" source="s5PXaif0AqIX-a3yGmby-13" target="s5PXaif0AqIX-a3yGmby-19">
          <mxGeometry relative="1" as="geometry" />
        </mxCell>
        <mxCell id="s5PXaif0AqIX-a3yGmby-13" value="6.45" style="rhombus;whiteSpace=wrap;html=1;shadow=0;strokeWidth=1;spacing=6;spacingTop=-4;" vertex="1" parent="WIyWlLk6GJQsqaUBKTNV-1">
          <mxGeometry x="170" y="280" width="80" height="80" as="geometry" />
        </mxCell>
        <mxCell id="s5PXaif0AqIX-a3yGmby-17" value="policy update" style="rounded=1;whiteSpace=wrap;html=1;shadow=0;strokeWidth=1;spacing=6;spacingTop=-4;" vertex="1" parent="WIyWlLk6GJQsqaUBKTNV-1">
          <mxGeometry x="304" y="440" width="110" height="40" as="geometry" />
        </mxCell>
        <mxCell id="s5PXaif0AqIX-a3yGmby-19" value="Compliance" style="rounded=1;whiteSpace=wrap;html=1;shadow=0;strokeWidth=1;spacing=6;spacingTop=-4;" vertex="1" parent="WIyWlLk6GJQsqaUBKTNV-1">
          <mxGeometry x="30" y="440" width="120" height="40" as="geometry" />
        </mxCell>
        <mxCell id="s5PXaif0AqIX-a3yGmby-30" value="" style="edgeStyle=orthogonalEdgeStyle;rounded=0;orthogonalLoop=1;jettySize=auto;html=1;" edge="1" parent="WIyWlLk6GJQsqaUBKTNV-1" source="s5PXaif0AqIX-a3yGmby-23" target="s5PXaif0AqIX-a3yGmby-29">
          <mxGeometry relative="1" as="geometry" />
        </mxCell>
        <mxCell id="s5PXaif0AqIX-a3yGmby-32" value="" style="edgeStyle=orthogonalEdgeStyle;rounded=0;orthogonalLoop=1;jettySize=auto;html=1;" edge="1" parent="WIyWlLk6GJQsqaUBKTNV-1" source="s5PXaif0AqIX-a3yGmby-23" target="s5PXaif0AqIX-a3yGmby-31">
          <mxGeometry relative="1" as="geometry" />
        </mxCell>
        <mxCell id="s5PXaif0AqIX-a3yGmby-23" value="&lt;div&gt;Host &lt;br&gt;&lt;/div&gt;&lt;div&gt;has a sensor?&lt;/div&gt;" style="rhombus;whiteSpace=wrap;html=1;shadow=0;strokeWidth=1;spacing=6;spacingTop=-4;" vertex="1" parent="WIyWlLk6GJQsqaUBKTNV-1">
          <mxGeometry x="600" y="295" width="80" height="80" as="geometry" />
        </mxCell>
        <mxCell id="s5PXaif0AqIX-a3yGmby-24" value="Yes" style="text;html=1;align=center;verticalAlign=middle;resizable=0;points=[];autosize=1;strokeColor=none;fillColor=none;" vertex="1" parent="WIyWlLk6GJQsqaUBKTNV-1">
          <mxGeometry x="130" y="295" width="40" height="30" as="geometry" />
        </mxCell>
        <mxCell id="s5PXaif0AqIX-a3yGmby-25" value="No" style="text;html=1;align=center;verticalAlign=middle;resizable=0;points=[];autosize=1;strokeColor=none;fillColor=none;" vertex="1" parent="WIyWlLk6GJQsqaUBKTNV-1">
          <mxGeometry x="250" y="295" width="40" height="30" as="geometry" />
        </mxCell>
        <mxCell id="s5PXaif0AqIX-a3yGmby-26" value="Yes" style="text;html=1;align=center;verticalAlign=middle;resizable=0;points=[];autosize=1;strokeColor=none;fillColor=none;" vertex="1" parent="WIyWlLk6GJQsqaUBKTNV-1">
          <mxGeometry x="280" y="195" width="40" height="30" as="geometry" />
        </mxCell>
        <mxCell id="s5PXaif0AqIX-a3yGmby-28" value="" style="edgeStyle=orthogonalEdgeStyle;rounded=0;html=1;jettySize=auto;orthogonalLoop=1;fontSize=11;endArrow=block;endFill=0;endSize=8;strokeWidth=1;shadow=0;labelBackgroundColor=none;entryX=0.5;entryY=0;entryDx=0;entryDy=0;exitX=1;exitY=0.5;exitDx=0;exitDy=0;" edge="1" parent="WIyWlLk6GJQsqaUBKTNV-1" source="s5PXaif0AqIX-a3yGmby-1" target="s5PXaif0AqIX-a3yGmby-23">
          <mxGeometry y="10" relative="1" as="geometry">
            <mxPoint as="offset" />
            <mxPoint x="570" y="200" as="sourcePoint" />
            <mxPoint x="680" y="160" as="targetPoint" />
          </mxGeometry>
        </mxCell>
        <mxCell id="s5PXaif0AqIX-a3yGmby-29" value="&lt;div&gt;Check&lt;/div&gt;&lt;div&gt;Sensor is running&lt;br&gt;&lt;/div&gt;" style="rounded=1;whiteSpace=wrap;html=1;shadow=0;strokeWidth=1;spacing=6;spacingTop=-4;" vertex="1" parent="WIyWlLk6GJQsqaUBKTNV-1">
          <mxGeometry x="440" y="440" width="120" height="40" as="geometry" />
        </mxCell>
        <mxCell id="s5PXaif0AqIX-a3yGmby-31" value="Installation" style="rounded=1;whiteSpace=wrap;html=1;shadow=0;strokeWidth=1;spacing=6;spacingTop=-4;" vertex="1" parent="WIyWlLk6GJQsqaUBKTNV-1">
          <mxGeometry x="700" y="440" width="100" height="40" as="geometry" />
        </mxCell>
        <mxCell id="s5PXaif0AqIX-a3yGmby-33" value="Yes" style="text;html=1;align=center;verticalAlign=middle;resizable=0;points=[];autosize=1;strokeColor=none;fillColor=none;" vertex="1" parent="WIyWlLk6GJQsqaUBKTNV-1">
          <mxGeometry x="515" y="345" width="40" height="30" as="geometry" />
        </mxCell>
        <mxCell id="s5PXaif0AqIX-a3yGmby-36" value="No" style="text;html=1;align=center;verticalAlign=middle;resizable=0;points=[];autosize=1;strokeColor=none;fillColor=none;" vertex="1" parent="WIyWlLk6GJQsqaUBKTNV-1">
          <mxGeometry x="700" y="345" width="40" height="30" as="geometry" />
        </mxCell>
      </root>
    </mxGraphModel>
  </diagram>
</mxfile>
